<mxfile host="www.draw.io" modified="2019-12-02T15:45:25.210Z" agent="Mozilla/5.0 (Windows NT 10.0; Win64; x64; rv:70.0) Gecko/20100101 Firefox/70.0" etag="PHFrzfto_0tVfSmDsLx7" version="12.3.4" type="github" pages="1">
  <diagram id="xtW9qw7x1F9RCwTty7tV" name="Page-1">
    <mxGraphModel dx="2313" dy="826" grid="1" gridSize="10" guides="1" tooltips="1" connect="1" arrows="1" fold="1" page="1" pageScale="1" pageWidth="850" pageHeight="1100" math="0" shadow="0">
      <root>
        <mxCell id="0"/>
        <mxCell id="1" parent="0"/>
        <mxCell id="zyOkTljc6yjNZRcECdP_-1" value="&lt;p style=&quot;margin: 0px ; margin-top: 4px ; text-align: center&quot;&gt;&lt;i&gt;&amp;lt;&amp;lt;Interface&amp;gt;&amp;gt;&lt;/i&gt;&lt;br&gt;&lt;b&gt;DataRequestService&lt;/b&gt;&lt;/p&gt;&lt;hr size=&quot;1&quot;&gt;&lt;p style=&quot;margin: 0px ; margin-left: 4px&quot;&gt;+&amp;nbsp; createAMList(ListAM: String): Boolean&lt;/p&gt;&lt;p style=&quot;margin: 0px ; margin-left: 4px&quot;&gt;+&amp;nbsp; retrieveAMData(fieldName: String): Data&lt;/p&gt;&lt;p style=&quot;margin: 0px ; margin-left: 4px&quot;&gt;+&amp;nbsp; checkUniqueCode(uniueCode: String) Boolean&lt;/p&gt;" style="verticalAlign=top;align=left;overflow=fill;fontSize=12;fontFamily=Helvetica;html=1;rounded=0;shadow=0;comic=0;labelBackgroundColor=none;strokeWidth=1" vertex="1" parent="1">
          <mxGeometry x="-480" y="100" width="280" height="100" as="geometry"/>
        </mxCell>
        <mxCell id="zyOkTljc6yjNZRcECdP_-2" value="&lt;p style=&quot;margin: 0px ; margin-top: 4px ; text-align: center&quot;&gt;&lt;i&gt;&amp;lt;&amp;lt;Interface&amp;gt;&amp;gt;&lt;/i&gt;&lt;br&gt;&lt;b&gt;AuthorityService&lt;/b&gt;&lt;/p&gt;&lt;hr size=&quot;1&quot;&gt;&lt;p style=&quot;margin: 0px ; margin-left: 4px&quot;&gt;+&amp;nbsp; AuthorityLogin(username: String, password: String): LoginStatus&lt;/p&gt;&lt;p style=&quot;margin: 0px ; margin-left: 4px&quot;&gt;+&amp;nbsp; AuthoritySignUp(username: String, password:String, name:String, &lt;br&gt;&lt;/p&gt;&lt;p style=&quot;margin: 0px ; margin-left: 4px&quot;&gt;&amp;nbsp;&amp;nbsp;&amp;nbsp;&amp;nbsp;&amp;nbsp;&amp;nbsp;&amp;nbsp;&amp;nbsp;&amp;nbsp;&amp;nbsp;&amp;nbsp;&amp;nbsp;&amp;nbsp;&amp;nbsp;&amp;nbsp;&amp;nbsp;&amp;nbsp;&amp;nbsp;&amp;nbsp;&amp;nbsp;&amp;nbsp;&amp;nbsp;&amp;nbsp;&amp;nbsp;&amp;nbsp;&amp;nbsp;&amp;nbsp;&amp;nbsp;&amp;nbsp;&amp;nbsp;&amp;nbsp; address: String, city: String, listAM: String): SignupStatus&lt;br&gt;&lt;/p&gt;&lt;hr size=&quot;1&quot;&gt;" style="verticalAlign=top;align=left;overflow=fill;fontSize=12;fontFamily=Helvetica;html=1;rounded=0;shadow=0;comic=0;labelBackgroundColor=none;strokeWidth=1" vertex="1" parent="1">
          <mxGeometry x="-120" y="452" width="410" height="90" as="geometry"/>
        </mxCell>
        <mxCell id="zyOkTljc6yjNZRcECdP_-3" style="edgeStyle=orthogonalEdgeStyle;rounded=0;html=1;dashed=1;labelBackgroundColor=none;startFill=0;endArrow=open;endFill=0;endSize=10;fontFamily=Verdana;fontSize=10;" edge="1" parent="1">
          <mxGeometry relative="1" as="geometry">
            <Array as="points">
              <mxPoint x="90" y="212"/>
              <mxPoint x="89" y="212"/>
            </Array>
            <mxPoint x="89" y="450" as="sourcePoint"/>
            <mxPoint x="89" y="203" as="targetPoint"/>
          </mxGeometry>
        </mxCell>
        <mxCell id="zyOkTljc6yjNZRcECdP_-4" value="&lt;p style=&quot;margin: 0px ; margin-top: 4px ; text-align: center&quot;&gt;&lt;i&gt;&amp;lt;&amp;lt;Interface&amp;gt;&amp;gt;&lt;/i&gt;&lt;br&gt;&lt;b&gt;AuthorityAMListDataService&lt;/b&gt;&lt;/p&gt;&lt;hr size=&quot;1&quot;&gt;&amp;nbsp;+&amp;nbsp; deleteAuthorityMember(authorityMemberID: String, authorityID: String): Boolean&lt;br&gt;&lt;p style=&quot;margin: 0px ; margin-left: 4px&quot;&gt;+&amp;nbsp; addNewAuthorityMember(authorityID: String):Boolean&lt;/p&gt;&lt;p style=&quot;margin: 0px ; margin-left: 4px&quot;&gt;+&amp;nbsp; updateAuthorityMemberPersonalData(fieldName, value): am: AuthorityMember&lt;br&gt;&lt;/p&gt;&lt;p style=&quot;margin: 0px ; margin-left: 4px&quot;&gt;+&amp;nbsp; updateAuthorityData(fieldName, value): a: Authority&lt;/p&gt;" style="verticalAlign=top;align=left;overflow=fill;fontSize=12;fontFamily=Helvetica;html=1;rounded=0;shadow=0;comic=0;labelBackgroundColor=none;strokeWidth=1" vertex="1" parent="1">
          <mxGeometry x="360" y="85" width="470" height="115" as="geometry"/>
        </mxCell>
        <mxCell id="zyOkTljc6yjNZRcECdP_-5" value="&lt;p style=&quot;margin: 0px ; margin-top: 4px ; text-align: center&quot;&gt;&lt;i&gt;&amp;lt;&amp;lt;Interface&amp;gt;&amp;gt;&lt;/i&gt;&lt;br&gt;&lt;b&gt;TicketService&lt;/b&gt;&lt;/p&gt;&lt;hr size=&quot;1&quot;&gt;&lt;div&gt;&amp;nbsp;+ ticketHandlingAccepted(tickedID: String): Boolean&lt;/div&gt;&lt;div&gt;&amp;nbsp;+ retrieveTicketDetails(ticketID: String): Data&lt;/div&gt;&lt;div&gt;&amp;nbsp;+ ticketGenerated(ticketID: String): Boolean&lt;br&gt;&lt;/div&gt;&lt;div&gt;&lt;br&gt;&lt;/div&gt;" style="verticalAlign=top;align=left;overflow=fill;fontSize=12;fontFamily=Helvetica;html=1;rounded=0;shadow=0;comic=0;labelBackgroundColor=none;strokeWidth=1" vertex="1" parent="1">
          <mxGeometry x="-130" y="94" width="410" height="105" as="geometry"/>
        </mxCell>
        <mxCell id="zyOkTljc6yjNZRcECdP_-6" style="edgeStyle=orthogonalEdgeStyle;rounded=0;html=1;dashed=1;labelBackgroundColor=none;startFill=0;endArrow=open;endFill=0;endSize=10;fontFamily=Verdana;fontSize=10;entryX=0.5;entryY=1;entryDx=0;entryDy=0;" edge="1" parent="1" target="zyOkTljc6yjNZRcECdP_-1">
          <mxGeometry relative="1" as="geometry">
            <Array as="points">
              <mxPoint x="-10" y="356"/>
              <mxPoint x="-340" y="356"/>
            </Array>
            <mxPoint x="-10" y="450" as="sourcePoint"/>
            <mxPoint x="-10" y="261.28571428571433" as="targetPoint"/>
          </mxGeometry>
        </mxCell>
        <mxCell id="zyOkTljc6yjNZRcECdP_-7" value="&amp;lt;&amp;lt;use&amp;gt;&amp;gt;" style="text;html=1;align=center;verticalAlign=middle;resizable=0;points=[];;labelBackgroundColor=#ffffff;" vertex="1" connectable="0" parent="zyOkTljc6yjNZRcECdP_-6">
          <mxGeometry x="0.0877" y="2" relative="1" as="geometry">
            <mxPoint x="3.5" y="-10.5" as="offset"/>
          </mxGeometry>
        </mxCell>
        <mxCell id="zyOkTljc6yjNZRcECdP_-8" style="edgeStyle=orthogonalEdgeStyle;rounded=0;html=1;dashed=1;labelBackgroundColor=none;startFill=0;endArrow=open;endFill=0;endSize=10;fontFamily=Verdana;fontSize=10;entryX=0.5;entryY=1;entryDx=0;entryDy=0;" edge="1" parent="1" target="zyOkTljc6yjNZRcECdP_-4">
          <mxGeometry relative="1" as="geometry">
            <Array as="points">
              <mxPoint x="170" y="356"/>
              <mxPoint x="596" y="356"/>
            </Array>
            <mxPoint x="170" y="450" as="sourcePoint"/>
            <mxPoint x="-160" y="209.78571428571433" as="targetPoint"/>
          </mxGeometry>
        </mxCell>
        <mxCell id="zyOkTljc6yjNZRcECdP_-9" value="&amp;lt;&amp;lt;use&amp;gt;&amp;gt;" style="text;html=1;" vertex="1" parent="1">
          <mxGeometry x="382" y="334" width="40" height="30" as="geometry"/>
        </mxCell>
        <mxCell id="zyOkTljc6yjNZRcECdP_-10" value="&amp;lt;&amp;lt;use&amp;gt;&amp;gt;" style="text;html=1;labelBackgroundColor=#ffffff;" vertex="1" parent="1">
          <mxGeometry x="55" y="350" width="40" height="28" as="geometry"/>
        </mxCell>
        <mxCell id="zyOkTljc6yjNZRcECdP_-11" value="&lt;p style=&quot;margin: 0px ; margin-top: 4px ; text-align: center&quot;&gt;&lt;i&gt;&amp;lt;&amp;lt;Interface&amp;gt;&amp;gt;&lt;/i&gt;&lt;br&gt;&lt;b&gt;AuthorityWebService&lt;/b&gt;&lt;/p&gt;&lt;hr size=&quot;1&quot;&gt;" style="verticalAlign=top;align=left;overflow=fill;fontSize=12;fontFamily=Helvetica;html=1;rounded=0;shadow=0;comic=0;labelBackgroundColor=none;strokeWidth=1" vertex="1" parent="1">
          <mxGeometry y="596" width="190" height="63" as="geometry"/>
        </mxCell>
        <mxCell id="zyOkTljc6yjNZRcECdP_-12" value="" style="endArrow=block;endSize=16;endFill=0;html=1;entryX=0.51;entryY=1.022;entryDx=0;entryDy=0;entryPerimeter=0;exitX=0.464;exitY=-0.016;exitDx=0;exitDy=0;exitPerimeter=0;" edge="1" parent="1" target="zyOkTljc6yjNZRcECdP_-2" source="zyOkTljc6yjNZRcECdP_-11">
          <mxGeometry width="160" relative="1" as="geometry">
            <mxPoint x="89" y="590" as="sourcePoint"/>
            <mxPoint x="79" y="520" as="targetPoint"/>
          </mxGeometry>
        </mxCell>
      </root>
    </mxGraphModel>
  </diagram>
</mxfile>
